#!OML:ASF H:\MichaelJackson\Top Level 1\Subject 1\Session 1\male.ASF
:FULLY-SPECIFIED
:DEGREES
889
root 0.960018 14.642 32.3681 23.6853 36.7063 -3.38367
lowerback 36.7288 4.82444 1.4057
upperback 12.2561 6.83589 0.154724
thorax -4.42508 3.47678 -2.94744
lowerneck -5.54551 1.62176 8.22135
upperneck -7.90737 1.5179 -8.95751
head -1.4383 0.703655 -4.46069
rclavicle 6.36111e-015 -7.83212e-014
rhumerus -38.0234 9.94633 -63.6822
rradius 122.979
rwrist -17.9108
rhand -24.516 -34.8159
rfingers 7.12502
rthumb 1.97902 295.214
lclavicle 6.36111e-015 -7.83212e-014
lhumerus -36.8073 12.8495 75.4168
lradius 46.8315
lwrist 23.5112
lhand -24.5312 3.9755
lfingers 7.12502
lthumb 1.9643 33.9462
rfemur -52.2476 -2.27127 37.8834
rtibia 74.754
rfoot 6.39108 45.0472
rtoes 62.2814
lfemur -84.6688 -10.4805 -16.5972
ltibia 44.4609
lfoot -19.8279 -9.01561
ltoes 16.9605
890
root 1.00437 14.5983 32.5281 22.6233 35.939 -3.78375
lowerback 36.0936 5.02439 1.24369
upperback 12.4077 7.00355 0.00805416
thorax -4.16908 3.56529 -3.04666
lowerneck -4.93554 1.54408 8.09348
upperneck -7.63587 1.48391 -8.43844
head -1.46396 0.689246 -4.24932
rclavicle -5.40694e-014 4.57205e-014
rhumerus -38.1229 9.9662 -65.9238
rradius 122.884
rwrist -17.5723
rhand -24.1913 -34.1994
rfingers 7.12502
rthumb 2.29261 295.833
lclavicle -5.40694e-014 4.57205e-014
lhumerus -37.3522 12.9636 75.234
lradius 46.3189
lwrist 23.0644
lhand -23.9654 3.78237
lfingers 7.12502
lthumb 2.51075 33.7473
rfemur -50.415 -2.35179 38.2041
rtibia 74.6986
rfoot 7.33813 45.4701
rtoes 62.6677
lfemur -83.4368 -10.7325 -17.13
ltibia 42.483
lfoot -19.7102 -9.4813
ltoes 15.3311
891
root 1.05185 14.551 32.6908 21.6386 35.0383 -4.15835
lowerback 35.482 5.25226 1.04475
upperback 12.4288 7.19257 -0.189832
thorax -3.92401 3.66225 -3.17074
lowerneck -4.34761 1.4694 7.92041
upperneck -7.30808 1.45578 -7.89075
head -1.46653 0.677611 -4.01963
rclavicle -1.1291e-013 2.94201e-014
rhumerus -38.3248 10.076 -68.1601
rradius 122.746
rwrist -17.2589
rhand -23.8678 -33.637
rfingers 7.12502
rthumb 2.60506 296.399
lclavicle -1.1291e-013 2.94201e-014
lhumerus -37.9269 13.1379 75.0168
lradius 45.7494
lwrist 22.5467
lhand -23.4084 3.62492
lfingers 7.12502
lthumb 3.04874 33.5829
rfemur -48.6316 -2.40924 38.482
rtibia 74.7041
rfoot 8.33736 45.8294
rtoes 63.0389
lfemur -82.3442 -11.032 -17.1849
ltibia 40.7842
lfoot -19.6315 -9.63283
ltoes 14.0215
892
root 1.10165 14.5005 32.8567 20.753 33.9991 -4.48546
lowerback 34.7941 5.51534 0.766831
upperback 12.415 7.40018 -0.420807
thorax -3.68926 3.76531 -3.28808
lowerneck -3.78905 1.40108 7.7242
upperneck -6.92897 1.43424 -7.34462
head -1.44628 0.669055 -3.78727
rclavicle -5.32743e-014 5.28767e-014
rhumerus -38.6127 10.2879 -70.3695
rradius 122.573
rwrist -16.9516
rhand -23.5213 -33.1353
rfingers 7.12502
rthumb 2.93966 296.905
lclavicle -5.32743e-014 5.28767e-014
lhumerus -38.5274 13.4032 74.7638
lradius 45.1177
lwrist 21.9595
lhand -22.8643 3.5355
lfingers 7.12502
lthumb 3.57418 33.4853
rfemur -46.9155 -2.45686 38.7027
rtibia 74.7827
rfoot 9.37973 46.1065
rtoes 63.381
lfemur -81.4318 -11.3869 -16.7833
ltibia 39.4301
lfoot -19.5908 -9.4409
ltoes 13.0767
893
root 1.15397 14.4463 33.026 19.9742 32.8286 -4.76107
lowerback 34.0178 5.80394 0.401169
upperback 12.3753 7.61597 -0.68219
thorax -3.45137 3.86963 -3.38541
lowerneck -3.28077 1.34728 7.50444
upperneck -6.50814 1.42767 -6.8086
head -1.40225 0.667961 -3.55516
rclavicle -7.15625e-014 8.82604e-014
rhumerus -38.9445 10.6049 -72.5389
rradius 122.369
rwrist -16.6339
rhand -23.1164 -32.6995
rfingers 7.12502
rthumb 3.3307 297.347
lclavicle -7.15625e-014 8.82604e-014
lhumerus -39.1422 13.7694 74.4738
lradius 44.4259
lwrist 21.3395
lhand -22.321 3.53134
lfingers 7.12502
lthumb 4.09881 33.4717
rfemur -45.2718 -2.51608 38.8639
rtibia 74.9373
rfoot 10.4427 46.302
rtoes 63.6743
lfemur -80.7244 -11.7889 -15.9897
ltibia 38.4773
lfoot -19.5664 -8.921
ltoes 12.5944
894
root 1.20829 14.3885 33.1996 19.2995 31.5595 -4.96969
lowerback 32.7626 6.09504 -0.026824
upperback 12.6551 7.82104 -0.8293
thorax -3.12955 3.96209 -3.54777
lowerneck -2.80153 1.30291 7.25054
upperneck -6.08535 1.42897 -6.2896
head -1.35211 0.671514 -3.3246
rclavicle -4.77083e-014 6.12257e-014
rhumerus -39.305 11.0099 -74.6416
rradius 122.144
rwrist -16.313
rhand -22.6134 -32.3043
rfingers 7.12502
rthumb 3.81647 297.75
lclavicle -4.77083e-014 6.12257e-014
lhumerus -39.7753 14.2159 74.1577
lradius 43.6942
lwrist 20.7353
lhand -21.7471 3.62389
lfingers 7.12502
lthumb 4.65295 33.5528
rfemur -43.682 -2.62301 38.9585
rtibia 75.155
rfoot 11.4494 46.4323
rtoes 63.9233
lfemur -80.2009 -12.2107 -14.9581
ltibia 37.9505
lfoot -19.5188 -8.16737
ltoes 12.5614
895
root 1.26453 14.3262 33.3778 18.7155 30.2184 -5.12426
lowerback 31.8455 6.38607 -0.544565
upperback 12.5496 8.01952 -1.13604
thorax -2.8616 4.0532 -3.57433
lowerneck -2.34109 1.27556 6.98014
upperneck -5.69295 1.44714 -5.80741
head -1.30753 0.684148 -3.1063
rclavicle 4.6118e-014 -4.92986e-014
rhumerus -39.6537 11.5018 -76.6701
rradius 121.889
rwrist -15.9821
rhand -21.9939 -31.9096
rfingers 7.12502
rthumb 4.41462 298.156
lclavicle 4.6118e-014 -4.92986e-014
lhumerus -40.4217 14.7383 73.8155
lradius 42.938
lwrist 20.1808
lhand -21.099 3.8226
lfingers 7.12502
lthumb 5.27877 33.7369
rfemur -42.129 -2.788 38.9922
rtibia 75.4143
rfoot 12.3798 46.5133
rtoes 64.1422
lfemur -79.832 -12.6067 -13.8268
ltibia 37.8359
lfoot -19.3996 -7.29341
ltoes 12.8122
896
root 1.32222 14.26 33.5614 18.1745 28.834 -5.23221
lowerback 30.8775 6.65801 -1.10692
upperback 12.4416 8.19793 -1.4533
thorax -2.57501 4.1332 -3.57043
lowerneck -1.88028 1.26437 6.70245
upperneck -5.35415 1.48147 -5.3726
head -1.27948 0.705432 -2.90581
rclavicle -1.16885e-013 3.93594e-014
rhumerus -39.9776 12.0532 -78.6048
rradius 121.6
rwrist -15.6473
rhand -21.2374 -31.4892
rfingers 7.12502
rthumb 5.14509 298.593
lclavicle -1.16885e-013 3.93594e-014
lhumerus -41.0779 15.2932 73.4591
lradius 42.1724
lwrist 19.707
lhand -20.3522 4.13749
lfingers 7.12502
lthumb 5.99981 34.0325
rfemur -40.5401 -3.02942 38.9628
rtibia 75.6728
rfoot 13.2098 46.5739
rtoes 64.3464
lfemur -79.5325 -12.935 -12.7447
ltibia 38.0901
lfoot -19.1052 -6.42747
ltoes 12.7505
